<?xml version="1.0" encoding="utf-8"?>
<!-- Generator: Adobe Illustrator 23.0.3, SVG Export Plug-In . SVG Version: 6.00 Build 0)  -->
<svg version="1.1" id="Layer_1" xmlns="http://www.w3.org/2000/svg" xmlns:xlink="http://www.w3.org/1999/xlink" x="0px" y="0px"
	 viewBox="0 0 39.2 24" style="enable-background:new 0 0 39.2 24;" xml:space="preserve">
<style type="text/css">
	.st0{display:none;fill:none;}
	.st1{fill:#FFFFFF;}
</style>
<path class="st0" d="M-4.4-12h48v48h-48V-12z"/>
<path class="st1" d="M1.6,24h36v-4h-36V24z M1.6,14c12,0,24,0,36,0c0.9-0.2,1.6-1,1.6-2s-0.7-1.8-1.6-2h-36c-0.9,0.3-1.5,1.1-1.5,2
	S0.7,13.7,1.6,14z M1.6,0c0,1.3,0,2.7,0,4h36c0-1.3,0-2.7,0-4H1.6z M1.6,24c12,0,24,0,36,0c0.9-0.2,1.6-1,1.6-2s-0.7-1.8-1.6-2h-36
	c-0.9,0.3-1.5,1.1-1.5,2S0.7,23.7,1.6,24z M1.5,4c12,0,24,0,36,0c0.9-0.2,1.6-1,1.6-2s-0.7-1.8-1.6-2h-36C0.6,0.3,0,1.1,0,2
	C0,2.9,0.6,3.7,1.5,4z"/>
</svg>
