<?xml version="1.0" encoding="utf-8"?>
<!-- Generator: Adobe Illustrator 23.0.3, SVG Export Plug-In . SVG Version: 6.00 Build 0)  -->
<svg version="1.1" id="Layer_1" xmlns="http://www.w3.org/2000/svg" xmlns:xlink="http://www.w3.org/1999/xlink" x="0px" y="0px"
	 viewBox="0 0 48 48" style="enable-background:new 0 0 48 48;" xml:space="preserve">
<style type="text/css">
	.st0{display:none;fill:none;}
	.st1{fill:#FFFFFF;}
</style>
<path class="st0" d="M0,0h48v48H0V0z"/>
<path class="st1" d="M6,36h36v-4H6V36z M6,26c12,0,24,0,36,0c0.9-0.2,1.6-1,1.6-2c0-1-0.7-1.8-1.6-2H6c-0.9,0.3-1.5,1.1-1.5,2
	C4.5,24.9,5.1,25.7,6,26z M6,12c0,1.3,0,2.7,0,4h36c0-1.3,0-2.7,0-4H6z M6,36c12,0,24,0,36,0c0.9-0.2,1.6-1,1.6-2c0-1-0.7-1.8-1.6-2
	H6c-0.9,0.3-1.5,1.1-1.5,2C4.5,34.9,5.1,35.7,6,36z M5.9,16c12,0,24,0,36,0c0.9-0.2,1.6-1,1.6-2c0-1-0.7-1.8-1.6-2h-36
	c-0.9,0.3-1.5,1.1-1.5,2C4.4,14.9,5,15.7,5.9,16z"/>
</svg>
